<svg width="32" height="32" viewBox="0 0 32 32" fill="none" xmlns="http://www.w3.org/2000/svg">
<rect width="32" height="32" rx="16" fill="#42C25F" fill-opacity="0.1"/>
<path d="M16.592 10.4219C17.1888 10.4219 17.7611 10.1848 18.183 9.76287C18.605 9.34091 18.842 8.76861 18.842 8.17188C18.842 7.57514 18.605 7.00284 18.183 6.58088C17.7611 6.15893 17.1888 5.92188 16.592 5.92188C15.9953 5.92188 15.423 6.15893 15.001 6.58088C14.5791 7.00284 14.342 7.57514 14.342 8.17188C14.342 8.76861 14.5791 9.34091 15.001 9.76287C15.423 10.1848 15.9953 10.4219 16.592 10.4219ZM17.776 16.2465L17.267 18.4265L19.888 20.9675L20.962 24.7245C20.9982 24.8507 21.009 24.9829 20.9941 25.1133C20.9791 25.2438 20.9386 25.3701 20.8749 25.4849C20.8111 25.5997 20.7254 25.7008 20.6226 25.7825C20.5197 25.8642 20.4018 25.9248 20.2755 25.961C20.1493 25.9971 20.0171 26.008 19.8867 25.993C19.7562 25.978 19.6299 25.9375 19.5151 25.8738C19.4003 25.81 19.2992 25.7243 19.2175 25.6215C19.1358 25.5186 19.0752 25.4007 19.039 25.2745L18.112 22.0315L13.465 17.5265C13.3293 17.4264 13.2211 17.2936 13.1504 17.1404C13.0798 16.9872 13.049 16.8187 13.061 16.6505L13.256 13.9145C12.563 14.6975 11.877 15.8205 11.462 17.2745C11.3891 17.5295 11.2179 17.745 10.986 17.8738C10.7541 18.0025 10.4805 18.0339 10.2255 17.961C9.97054 17.888 9.75495 17.7168 9.62621 17.4849C9.49746 17.253 9.46611 16.9795 9.53904 16.7245C10.085 14.8135 11.031 13.3325 12.009 12.3175C12.4466 11.8553 12.9452 11.4549 13.491 11.1275C13.952 10.8605 14.483 10.6495 15.001 10.6495C15.051 10.6495 15.1007 10.6531 15.15 10.6605C15.2167 10.6591 15.2834 10.6615 15.35 10.6675C15.8925 10.7159 16.4134 10.9027 16.8629 11.2102C17.3123 11.5177 17.6753 11.9354 17.917 12.4235C17.9397 12.4541 17.9604 12.4875 17.979 12.5235L19.209 14.7875C19.3489 15.0451 19.5436 15.2688 19.7795 15.4428C20.0154 15.6168 20.2866 15.7369 20.574 15.7945L21.696 16.0195C21.8285 16.0412 21.9552 16.0894 22.0686 16.1612C22.182 16.233 22.2798 16.3269 22.3562 16.4373C22.4325 16.5476 22.4859 16.6723 22.5131 16.8037C22.5402 16.9351 22.5407 17.0707 22.5144 17.2023C22.488 17.3339 22.4355 17.4589 22.3599 17.5698C22.2842 17.6806 22.187 17.7752 22.0741 17.8477C21.9611 17.9202 21.8348 17.9692 21.7025 17.9919C21.5702 18.0145 21.4347 18.0103 21.304 17.9795L20.182 17.7555C19.2223 17.5634 18.3663 17.0272 17.776 16.2465Z" fill="#0B9C2C"/>
<path d="M12.145 22.4033L13.353 18.7773L14.949 20.3153L14.042 23.0353C13.9203 23.4013 13.6952 23.7243 13.394 23.9653L11.125 25.7793C11.0225 25.8614 10.9048 25.9225 10.7786 25.9591C10.6524 25.9956 10.5203 26.007 10.3897 25.9925C10.2592 25.9781 10.1328 25.938 10.0177 25.8746C9.9026 25.8113 9.80112 25.7259 9.71905 25.6233C9.63697 25.5208 9.5759 25.4031 9.53932 25.2769C9.50274 25.1507 9.49137 25.0186 9.50586 24.888C9.52034 24.7575 9.5604 24.631 9.62375 24.516C9.68709 24.4009 9.77249 24.2994 9.87505 24.2173L12.145 22.4033Z" fill="#0B9C2C"/>
</svg>
