<svg width="45" height="44" viewBox="0 0 45 44" fill="none" xmlns="http://www.w3.org/2000/svg">
<path d="M16.25 18.5V17.5C16.25 14.1863 18.9363 11.5 22.25 11.5C25.5637 11.5 28.25 14.1863 28.25 17.5V18.5H30.25C30.8023 18.5 31.25 18.9477 31.25 19.5V31.5C31.25 32.0523 30.8023 32.5 30.25 32.5H14.25C13.6977 32.5 13.25 32.0523 13.25 31.5V19.5C13.25 18.9477 13.6977 18.5 14.25 18.5H16.25ZM29.25 20.5H15.25V30.5H29.25V20.5ZM21.25 26.2324C20.6522 25.8866 20.25 25.2403 20.25 24.5C20.25 23.3954 21.1454 22.5 22.25 22.5C23.3546 22.5 24.25 23.3954 24.25 24.5C24.25 25.2403 23.8478 25.8866 23.25 26.2324V28.5H21.25V26.2324ZM18.25 18.5H26.25V17.5C26.25 15.2909 24.4591 13.5 22.25 13.5C20.0409 13.5 18.25 15.2909 18.25 17.5V18.5Z" fill="#2D3843"/>
</svg>
