<svg width="32" height="32" viewBox="0 0 32 32" fill="none" xmlns="http://www.w3.org/2000/svg">
<rect width="32" height="32" rx="16" fill="#007AFF" fill-opacity="0.1"/>
<path d="M19.2501 10C19.8469 10 20.4192 9.76295 20.8411 9.34099C21.2631 8.91903 21.5001 8.34674 21.5001 7.75C21.5001 7.15326 21.2631 6.58097 20.8411 6.15901C20.4192 5.73705 19.8469 5.5 19.2501 5.5C18.6534 5.5 18.0811 5.73705 17.6591 6.15901C17.2372 6.58097 17.0001 7.15326 17.0001 7.75C17.0001 8.34674 17.2372 8.91903 17.6591 9.34099C18.0811 9.76295 18.6534 10 19.2501 10ZM14.7301 12.141C14.1066 12.296 13.6811 12.529 13.3376 12.818C12.8226 13.252 12.4066 13.878 11.8446 14.862C11.713 15.0923 11.4953 15.2608 11.2394 15.3306C10.9835 15.4004 10.7104 15.3656 10.4801 15.234C10.2499 15.1024 10.0813 14.8847 10.0115 14.6288C9.94177 14.3729 9.97652 14.0998 10.1081 13.8695C10.6676 12.891 11.2331 11.9755 12.0496 11.2885C12.9016 10.5705 13.9446 10.1645 15.3511 10.008C15.9391 9.943 16.5861 9.956 17.1926 10.2265C17.8291 10.511 18.2941 11.0205 18.6111 11.7015C19.0381 12.618 19.3556 13.1635 19.6096 13.48C19.7321 13.6315 19.8176 13.702 19.8661 13.7335C19.9046 13.7585 19.9211 13.7605 19.9271 13.7615C19.9706 13.7665 20.1121 13.7615 20.5261 13.578C20.7066 13.498 20.9036 13.402 21.1446 13.2845L21.2021 13.2565C21.4969 13.1111 21.7943 12.9711 22.0941 12.8365C22.3362 12.7302 22.6106 12.7241 22.8572 12.8196C23.1037 12.9151 23.3025 13.1043 23.4099 13.3459C23.5173 13.5875 23.5246 13.8618 23.4303 14.1088C23.336 14.3558 23.1477 14.5555 22.9066 14.664C22.6287 14.7887 22.3532 14.9185 22.0801 15.0535L22.0146 15.0855C21.7841 15.198 21.5521 15.3115 21.3346 15.4075C20.8846 15.6065 20.3096 15.8225 19.6861 15.747C19.0281 15.667 18.5211 15.2955 18.1036 14.797L16.7371 17.4335L18.6271 19.8925C18.7398 20.0393 18.8096 20.2144 18.8286 20.3985L19.2446 24.3965C19.2605 24.5282 19.25 24.6618 19.2137 24.7894C19.1774 24.917 19.1161 25.0361 19.0333 25.1398C18.9506 25.2435 18.848 25.3297 18.7316 25.3933C18.6152 25.457 18.4873 25.4969 18.3553 25.5106C18.2233 25.5243 18.09 25.5117 17.963 25.4733C17.8359 25.435 17.7178 25.3718 17.6155 25.2874C17.5131 25.203 17.4286 25.099 17.3668 24.9816C17.305 24.8642 17.2672 24.7357 17.2556 24.6035L16.8686 20.887L15.7206 19.393L15.7106 19.4115L15.6686 19.3255L13.5476 16.5655C13.4434 16.4298 13.3757 16.2697 13.351 16.1004C13.3263 15.9311 13.3454 15.7583 13.4066 15.5985L14.7301 12.141Z" fill="#007AFF"/>
<path d="M13.216 18.0039L12.48 19.9839L9.58001 19.7539C9.44817 19.7417 9.3152 19.7557 9.18883 19.7953C9.06246 19.8348 8.9452 19.8991 8.84386 19.9843C8.74253 20.0696 8.65913 20.1741 8.5985 20.2918C8.53788 20.4095 8.50124 20.5381 8.49071 20.6701C8.48019 20.8021 8.49598 20.9349 8.53717 21.0607C8.57837 21.1866 8.64415 21.303 8.7307 21.4032C8.81724 21.5034 8.92283 21.5855 9.04133 21.6445C9.15983 21.7036 9.28889 21.7386 9.42101 21.7474L13.075 22.0374C13.2919 22.0547 13.5084 22.0007 13.6919 21.8838C13.8753 21.7669 14.0156 21.5933 14.0915 21.3894L14.654 19.8754L13.216 18.0039Z" fill="#007AFF"/>
</svg>
