<svg width="20" height="20" viewBox="0 0 20 20" fill="none" xmlns="http://www.w3.org/2000/svg">
<path d="M13.7499 2.5C16.2813 2.5 18.3333 4.58333 18.3333 7.5C18.3333 13.3333 12.0833 16.6667 9.99992 17.9167C8.35209 16.9279 4.09741 14.6358 2.3907 10.8342L0.833252 10.8333V9.16667L1.84196 9.16742C1.72846 8.63608 1.66659 8.08042 1.66659 7.5C1.66659 4.58333 3.74992 2.5 6.24992 2.5C7.79989 2.5 9.16658 3.33333 9.99992 4.16667C10.8333 3.33333 12.1999 2.5 13.7499 2.5ZM13.7499 4.16667C12.8533 4.16667 11.8827 4.64092 11.1784 5.34517L9.99992 6.52369L8.82142 5.34517C8.11715 4.64092 7.1465 4.16667 6.24992 4.16667C4.63247 4.16667 3.33325 5.54708 3.33325 7.5C3.33325 8.07118 3.40854 8.62633 3.5554 9.167L5.36143 9.16667L7.08325 6.29696L9.58325 10.4636L10.3614 9.16667H14.1666V10.8333H11.3051L9.58325 13.7031L7.08325 9.53642L6.30508 10.8333L4.25649 10.8338C4.91431 11.9781 5.91078 13.0568 7.2042 14.0858C7.82493 14.5796 8.487 15.0404 9.22167 15.5032C9.47042 15.6599 9.7175 15.8107 9.99992 15.9793C10.2823 15.8107 10.5294 15.6599 10.7782 15.5032C11.5128 15.0404 12.1749 14.5796 12.7957 14.0858C15.278 12.1108 16.6666 9.95292 16.6666 7.5C16.6666 5.53397 15.3858 4.16667 13.7499 4.16667Z" fill="#71767C"/>
</svg>
