<svg width="91" height="90" viewBox="0 0 91 90" fill="none" xmlns="http://www.w3.org/2000/svg">
<path d="M45.75 82.5C25.0393 82.5 8.25 65.7105 8.25 45C8.25 24.2893 25.0393 7.5 45.75 7.5C66.4605 7.5 83.25 24.2893 83.25 45C83.25 65.7105 66.4605 82.5 45.75 82.5ZM45.75 75C62.3186 75 75.75 61.5686 75.75 45C75.75 28.4314 62.3186 15 45.75 15C29.1814 15 15.75 28.4314 15.75 45C15.75 61.5686 29.1814 75 45.75 75ZM40.5821 31.5547L58.878 43.752C59.5672 44.2114 59.7536 45.1429 59.2939 45.8321C59.184 45.9967 59.0426 46.1381 58.878 46.248L40.5821 58.4452C39.8929 58.905 38.9614 58.7186 38.502 58.0294C38.3377 57.783 38.25 57.4935 38.25 57.1973V32.8028C38.25 31.9743 38.9216 31.3028 39.75 31.3028C40.0462 31.3028 40.3357 31.3904 40.5821 31.5547Z" fill="white"/>
</svg>
