<svg width="20" height="21" viewBox="0 0 20 21" fill="none" xmlns="http://www.w3.org/2000/svg">
<path d="M14.6814 5.47407L15.8926 4.26292L17.0711 5.44143L15.8599 6.65258C16.8863 7.93564 17.5 9.56315 17.5 11.334C17.5 15.4762 14.1422 18.834 10 18.834C5.85787 18.834 2.5 15.4762 2.5 11.334C2.5 7.19185 5.85787 3.83398 10 3.83398C11.7708 3.83398 13.3983 4.44771 14.6814 5.47407ZM10 17.1673C13.2217 17.1673 15.8333 14.5557 15.8333 11.334C15.8333 8.11233 13.2217 5.50065 10 5.50065C6.77834 5.50065 4.16667 8.11233 4.16667 11.334C4.16667 14.5557 6.77834 17.1673 10 17.1673ZM9.16667 7.16732H10.8333V12.1673H9.16667V7.16732ZM6.66667 1.33398H13.3333V3.00065H6.66667V1.33398Z" fill="#71767C"/>
</svg>
